<?xml version="1.0" standalone="no"?>
<!DOCTYPE svg PUBLIC "-//W3C//DTD SVG 20010904//EN"
 "http://www.w3.org/TR/2001/REC-SVG-20010904/DTD/svg10.dtd">
<svg version="1.0" xmlns="http://www.w3.org/2000/svg"
 width="1000.000000pt" height="1000.000000pt" viewBox="0 0 1000.000000 1000.000000"
 preserveAspectRatio="xMidYMid meet">

<g transform="translate(0.000000,1000.000000) scale(0.100000,-0.100000)"
fill="#000000" stroke="none">
<path d="M213 9982 c-96 -34 -170 -111 -198 -207 -13 -44 -15 -633 -13 -4800
l3 -4750 23 -43 c34 -63 89 -120 146 -150 l51 -27 4775 0 4775 0 51 27 c57 30
112 87 146 150 l23 43 0 4775 0 4775 -24 45 c-32 61 -86 116 -146 148 l-50 27
-4755 2 c-4545 2 -4757 2 -4807 -15z m3346 -3206 c388 -388 731 -724 761 -746
182 -137 385 -203 620 -203 232 1 422 61 605 191 42 30 351 329 780 755 l710
706 423 0 c232 0 422 -4 422 -8 0 -13 -1828 -1823 -1902 -1884 -429 -351
-1025 -459 -1564 -281 -172 56 -415 194 -549 312 -73 64 -1861 1852 -1857
1857 3 2 194 4 425 5 l420 0 706 -704z m1566 -1976 c206 -24 372 -73 560 -166
243 -119 226 -104 1270 -1146 l950 -948 -430 0 -430 0 -695 696 c-414 414
-727 720 -775 756 -316 238 -746 276 -1096 98 -138 -71 -180 -109 -904 -832
l-721 -718 -429 0 -430 0 870 871 c479 479 915 911 970 961 362 325 830 480
1290 428z"/>
</g>
</svg>
